nColumns=55
nRows=38
DataType=double
version=3
OpenSimVersion=4.1
endheader
time	ground_force_1_vx	ground_force_1_vy	ground_force_1_vz	ground_force_1_px	ground_force_1_py	ground_force_1_pz	ground_force_1_mx	ground_force_1_my	ground_force_1_mz	ground_force_2_vx	ground_force_2_vy	ground_force_2_vz	ground_force_2_px	ground_force_2_py	ground_force_2_pz	ground_force_2_mx	ground_force_2_my	ground_force_2_mz	ground_force_3_vx	ground_force_3_vy	ground_force_3_vz	ground_force_3_px	ground_force_3_py	ground_force_3_pz	ground_force_3_mx	ground_force_3_my	ground_force_3_mz	ground_force_4_vx	ground_force_4_vy	ground_force_4_vz	ground_force_4_px	ground_force_4_py	ground_force_4_pz	ground_force_4_mx	ground_force_4_my	ground_force_4_mz	ground_force_5_vx	ground_force_5_vy	ground_force_5_vz	ground_force_5_px	ground_force_5_py	ground_force_5_pz	ground_force_5_mx	ground_force_5_my	ground_force_5_mz	ground_force_6_vx	ground_force_6_vy	ground_force_6_vz	ground_force_6_px	ground_force_6_py	ground_force_6_pz	ground_force_6_mx	ground_force_6_my	ground_force_6_mz
7.67	0	0	0	0	0	0	0	0	0	0	0	0	0	0	0	0	0	0	0	0	0	0	0	0	0	0	0	0	0	0	0	0	0	0	0	0	-5.57184e-43	-1.27989e-42	-8.40754e-44	0	0	0	0	0	0	-72.6845	412.461	54.7385	0.123278	-4.47833e-05	-5.98878	27.8094	0.542733	1.9155
7.675	0	0	0	0	0	0	0	0	0	0	0	0	0	0	0	0	0	0	0	0	0	0	0	0	0	0	0	0	0	0	0	0	0	0	0	0	-8.89384e-42	-2.04592e-41	-1.34579e-42	0	0	0	0	0	0	-74.8917	418.643	55.5426	0.12329	-5.26135e-05	-5.99053	28.9197	0.128778	2.01342
7.68	0	0	0	0	0	0	0	0	0	0	0	0	0	0	0	0	0	0	0	0	0	0	0	0	0	0	0	0	0	0	0	0	0	0	0	0	-1.41787e-40	-3.26625e-40	-2.14635e-41	0	0	0	0	0	0	-78.0373	427.043	57.1683	0.123332	-6.04306e-05	-5.99226	30.2642	-0.299071	2.06961
7.685	0	0	0	0	0	0	0	0	0	0	0	0	0	0	0	0	0	0	0	0	0	0	0	0	0	0	0	0	0	0	0	0	0	0	0	0	-2.25788e-39	-5.20873e-39	-3.42001e-40	0	0	0	0	0	0	-81.3366	436.51	59.0552	0.123406	-6.80844e-05	-5.99396	31.6359	-0.673197	2.14012
7.69	0	0	0	0	0	0	0	0	0	0	0	0	0	0	0	0	0	0	0	0	0	0	0	0	0	0	0	0	0	0	0	0	0	0	0	0	-3.59163e-38	-8.29735e-38	-5.4436e-39	0	0	0	0	0	0	-83.8207	446.358	60.1638	0.123509	-7.54456e-05	-5.99558	33.2663	-0.982175	2.25632
7.695	0	0	0	0	0	0	0	0	0	0	0	0	0	0	0	0	0	0	0	0	0	0	0	0	0	0	0	0	0	0	0	0	0	0	0	0	-5.70695e-37	-1.3203e-36	-8.65504e-38	0	0	0	0	0	0	-85.5239	458.676	60.0155	0.123638	-8.24155e-05	-5.99712	34.6565	-1.09811	2.33291
7.7	0	0	0	0	0	0	0	0	0	0	0	0	0	0	0	0	0	0	0	0	0	0	0	0	0	0	0	0	0	0	0	0	0	0	0	0	-9.05809e-36	-2.09859e-35	-1.37459e-36	0	0	0	0	0	0	-88.5588	471.591	61.9875	0.123791	-8.89294e-05	-5.99854	36.3847	-1.19617	2.46377
7.705	0	0	0	0	0	0	0	0	0	0	0	0	0	0	0	0	0	0	0	0	0	0	0	0	0	0	0	0	0	0	0	0	0	0	0	0	-1.4361e-34	-3.332e-34	-2.18071e-35	0	0	0	0	0	0	-90.8081	485.117	62.8038	0.123962	-9.49547e-05	-5.99986	37.9597	-1.35389	2.61072
7.71	0	0	0	0	0	0	0	0	0	0	0	0	0	0	0	0	0	0	0	0	0	0	0	0	0	0	0	0	0	0	0	0	0	0	0	0	-2.27429e-33	-5.28445e-33	-3.45569e-34	0	0	0	0	0	0	-93.9539	499.033	64.5869	0.124147	-0.000100486	-6.00106	39.6724	-1.50112	2.80636
7.715	0	0	0	0	0	0	0	0	0	0	0	0	0	0	0	0	0	0	0	0	0	0	0	0	0	0	0	0	0	0	0	0	0	0	0	0	-3.5976e-32	-8.37159e-32	-5.46993e-33	0	0	0	0	0	0	-97.1587	513.122	66.023	0.124343	-0.000105539	-6.00215	41.5047	-1.52623	2.96867
7.72	0	0	0	0	0	0	0	0	0	0	0	0	0	0	0	0	0	0	0	0	0	0	0	0	0	0	0	0	0	0	0	0	0	0	0	0	-5.6843e-31	-1.32472e-30	-8.64831e-32	0	0	0	0	0	0	-101.773	527.368	65.4432	0.124546	-0.000110143	-6.00314	43.1646	-1.48553	3.15086
7.725	0	0	0	0	0	0	0	0	0	0	0	0	0	0	0	0	0	0	0	0	0	0	0	0	0	0	0	0	0	0	0	0	0	0	0	0	-8.97079e-30	-2.09382e-29	-1.36576e-30	0	0	0	0	0	0	-106.219	542.079	65.6447	0.124752	-0.000114337	-6.00404	44.7608	-1.32868	3.39145
7.73	0	0	0	0	0	0	0	0	0	0	0	0	0	0	0	0	0	0	0	0	0	0	0	0	0	0	0	0	0	0	0	0	0	0	0	0	-1.41405e-28	-3.30557e-28	-2.15429e-29	0	0	0	0	0	0	-111.632	556.874	63.8817	0.124957	-0.000118161	-6.00486	46.5194	-1.19755	3.5892
7.735	0	0	0	0	0	0	0	0	0	0	0	0	0	0	0	0	0	0	0	0	0	0	0	0	0	0	0	0	0	0	0	0	0	0	0	0	-2.22621e-27	-5.2124e-27	-3.39398e-28	0	0	0	0	0	0	-116.764	572.24	63.6152	0.125158	-0.000121653	-6.0056	48.1781	-1.12797	3.85147
7.74	0	0	0	0	0	0	0	0	0	0	0	0	0	0	0	0	0	0	0	0	0	0	0	0	0	0	0	0	0	0	0	0	0	0	0	0	-3.50045e-26	-8.2092e-26	-5.34043e-27	0	0	0	0	0	0	-120.966	587.903	61.8431	0.12535	-0.000124845	-6.00628	49.8963	-0.857069	4.01788
7.745	0	0	0	0	0	0	0	0	0	0	0	0	0	0	0	0	0	0	0	0	0	0	0	0	0	0	0	0	0	0	0	0	0	0	0	0	-5.49695e-25	-1.29129e-24	-8.39253e-26	0	0	0	0	0	0	-126.184	602.389	59.8587	0.125528	-0.000127757	-6.0069	51.4852	-0.612382	4.15575
7.75	0	0	0	0	0	0	0	0	0	0	0	0	0	0	0	0	0	0	0	0	0	0	0	0	0	0	0	0	0	0	0	0	0	0	0	0	-8.62072e-24	-2.02857e-23	-1.31717e-24	0	0	0	0	0	0	-131.87	617.812	57.2141	0.125688	-0.000130402	-6.00746	53.1574	-0.304766	4.37091
7.755	0	0	0	0	0	0	0	0	0	0	0	0	0	0	0	0	0	0	0	0	0	0	0	0	0	0	0	0	0	0	0	0	0	0	0	0	-1.35012e-22	-3.18264e-22	-2.06448e-23	0	0	0	0	0	0	-137.62	633.588	53.9663	0.125824	-0.000132778	-6.00797	54.7614	0.0402393	4.58883
7.76	0	0	0	0	0	0	0	0	0	0	0	0	0	0	0	0	0	0	0	0	0	0	0	0	0	0	0	0	0	0	0	0	0	0	0	0	-2.11146e-21	-4.98649e-21	-3.23127e-22	0	0	0	0	0	0	-142.486	650.358	51.8899	0.125931	-0.00013488	-6.00842	56.5451	0.351655	4.81593
7.765	0	0	0	0	0	0	0	0	0	0	0	0	0	0	0	0	0	0	0	0	0	0	0	0	0	0	0	0	0	0	0	0	0	0	0	0	-3.29729e-20	-7.8018e-20	-5.05023e-21	0	0	0	0	0	0	-148.04	666.79	49.768	0.126002	-0.000136699	-6.00881	58.2419	0.722891	4.95411
7.77	0	0	0	0	0	0	0	0	0	0	0	0	0	0	0	0	0	0	0	0	0	0	0	0	0	0	0	0	0	0	0	0	0	0	0	0	-5.1412e-19	-1.21888e-18	-7.88132e-20	0	0	0	0	0	0	-153.865	682.227	46.4924	0.126035	-0.000138234	-6.00915	59.8576	1.14077	5.13913
7.775	0	0	0	0	0	0	0	0	0	0	0	0	0	0	0	0	0	0	0	0	0	0	0	0	0	0	0	0	0	0	0	0	0	0	0	0	-8.00347e-18	-1.9014e-17	-1.22803e-18	0	0	0	0	0	0	-159.596	698.164	43.6866	0.126026	-0.000139492	-6.00943	61.4972	1.49861	5.1988
7.78	0	0	0	0	0	0	0	0	0	0	0	0	0	0	0	0	0	0	0	0	0	0	0	0	0	0	0	0	0	0	0	0	0	0	0	0	-1.24384e-16	-2.96141e-16	-1.91034e-17	0	0	0	0	0	0	-164.944	713.346	40.831	0.125975	-0.000140498	-6.00966	62.9695	1.86097	5.31097
7.785	0	0	0	0	0	0	0	0	0	0	0	0	0	0	0	0	0	0	0	0	0	0	0	0	0	0	0	0	0	0	0	0	0	0	0	0	-1.92967e-15	-4.60475e-15	-2.96667e-16	0	0	0	0	0	0	-170.523	728.309	38.5941	0.125881	-0.000141293	-6.00986	64.4733	2.25278	5.35226
7.79	0	0	0	0	0	0	0	0	0	0	0	0	0	0	0	0	0	0	0	0	0	0	0	0	0	0	0	0	0	0	0	0	0	0	0	0	-2.98811e-14	-7.1476e-14	-4.59881e-15	0	0	0	0	0	0	-176.476	742.116	34.7649	0.125748	-0.000141936	-6.01002	65.8648	2.78624	5.35755
7.795	0	0	0	0	0	0	0	0	0	0	0	0	0	0	0	0	0	0	0	0	0	0	0	0	0	0	0	0	0	0	0	0	0	0	0	0	-4.61802e-13	-1.10744e-12	-7.11531e-14	0	0	0	0	0	0	-183.487	754.092	29.9307	0.12558	-0.000142498	-6.01018	67.0975	3.31949	5.26906
7.8	0	0	0	0	0	0	0	0	0	0	0	0	0	0	0	0	0	0	0	0	0	0	0	0	0	0	0	0	0	0	0	0	0	0	0	0	-7.12205e-12	-1.71254e-11	-1.09866e-12	0	0	0	0	0	0	-190.007	765.419	24.3245	0.125383	-0.000143054	-6.01034	68.1579	3.86546	5.245
7.805	0	0	0	0	0	0	0	0	0	0	0	0	0	0	0	0	0	0	0	0	0	0	0	0	0	0	0	0	0	0	0	0	0	0	0	0	-1.09593e-10	-2.64283e-10	-1.69278e-11	0	0	0	0	0	0	-195.926	774.901	19.1205	0.125161	-0.000143673	-6.01052	69.0461	4.59457	5.10159
7.81	0	0	0	0	0	0	0	0	0	0	0	0	0	0	0	0	0	0	0	0	0	0	0	0	0	0	0	0	0	0	0	0	0	0	0	0	-1.68238e-09	-4.06955e-09	-2.60219e-10	0	0	0	0	0	0	-201.381	781.979	13.2096	0.124921	-0.000144407	-6.01072	69.8781	5.33324	4.97119
7.815	0	0	0	0	0	0	0	0	0	0	0	0	0	0	0	0	0	0	0	0	0	0	0	0	0	0	0	0	0	0	0	0	0	0	0	0	-2.57597e-08	-6.2518e-08	-3.99026e-09	0	0	0	0	0	0	-206.833	787.119	8.02683	0.124667	-0.000145284	-6.01097	70.2974	5.98504	4.77271
7.82	0	0	0	0	0	0	0	0	0	0	0	0	0	0	0	0	0	0	0	0	0	0	0	0	0	0	0	0	0	0	0	0	0	0	0	0	-3.9332e-07	-9.58008e-07	-6.10246e-08	0	0	0	0	0	0	-211.662	789.336	3.20484	0.124403	-0.000146301	-6.01124	70.7134	6.71253	4.60688
7.825	0	0	0	0	0	0	0	0	0	0	0	0	0	0	0	0	0	0	0	0	0	0	0	0	0	0	0	0	0	0	0	0	0	0	0	0	-5.98725e-06	-1.46402e-05	-9.30571e-07	0	0	0	0	0	0	-216.409	788.384	-1.17405	0.124131	-0.000147428	-6.01154	70.8472	7.42691	4.33094
7.83	0	0	0	0	0	0	0	0	0	0	0	0	0	0	0	0	0	0	0	0	0	0	0	0	0	0	0	0	0	0	0	0	0	0	0	0	-9.08363e-05	-0.000223069	-1.41455e-05	0	0	0	0	0	0	-220.989	783.765	-5.55217	0.123847	-0.000148616	-6.01186	70.8222	8.02263	4.10768
7.835	0	0	0	0	0	0	0	0	0	0	0	0	0	0	0	0	0	0	0	0	0	0	0	0	0	0	0	0	0	0	0	0	0	0	0	0	-0.00137307	-0.00338782	-0.000214278	0	0	0	0	0	0	-225.254	774.884	-10.018	0.123548	-0.000149812	-6.01218	70.4639	8.72515	3.8543
7.84	0	0	0	0	0	0	0	0	0	0	0	0	0	0	0	0	0	0	0	0	0	0	0	0	0	0	0	0	0	0	0	0	0	0	0	0	-0.0206704	-0.0512686	-0.00323343	0	0	0	0	0	0	-228.997	762.683	-14.3663	0.123226	-0.000150978	-6.01249	69.6144	9.35159	3.49653
7.845	0	0	0	0	0	0	0	0	0	0	0	0	0	0	0	0	0	0	0	0	0	0	0	0	0	0	0	0	0	0	0	0	0	0	0	0	6.31946	17.8504	1.1181	-0.306834	-0.000101773	-5.17274	-3.44299	1.04038	-0.209117	-231.145	746.982	-17.298	0.12287	-0.000152107	-6.01281	68.6286	9.79976	3.10601
7.85	0	0	0	0	0	0	0	0	0	0	0	0	0	0	0	0	0	0	0	0	0	0	0	0	0	0	0	0	0	0	0	0	0	0	0	0	34.2168	303.546	22.5161	-0.386913	-0.000129875	-6.46833	-51.9681	7.06053	5.47584	-231.27	727.949	-19.9523	0.122468	-0.000153233	-6.01313	67.0484	10.3799	2.80707
7.855	0	0	0	0	0	0	0	0	0	0	0	0	0	0	0	0	0	0	0	0	0	0	0	0	0	0	0	0	0	0	0	0	0	0	0	0	104.952	537.632	109.445	-0.390978	-0.000132376	-6.47114	-80.0675	9.20874	-6.05628	-234.134	700.822	-24.065	0.122004	-0.000154444	-6.01349	64.7504	11.1623	2.44869
